# xmcd
#
# Track frame offsets: 
#        150
#        21046
#        37917
#        54832
#        74021
#        92255
#        109377
#        125580
#        141627
#        154370
#        170978
#        191335
#
# Disc length: 2798 seconds
#
# Revision: 0
# Processed by: cddbd v1.5.1PL0 Copyright (c) Steve Scherf et al.
# Submitted via: ExactAudioCopy v0.95a3
#
DISCID=ab0aec0c
DTITLE=3 Fox Drive - Listen to the Music
DYEAR=2005
DGENRE=Bluegrass
TTITLE0=Listen to the Music
TTITLE1=This Little House of Mine
TTITLE2=Slow Me Down
TTITLE3=Short Walk to the Moon
TTITLE4=Cold at the Bottom of Your Heart
TTITLE5=Man Behind the Wall
TTITLE6=Here Comes that Feeling Again
TTITLE7=An Eye for an Eye
TTITLE8=It Always Rains When I'm Lonesome
TTITLE9=Between Me and Jolene
TTITLE10=Red Rose Bouquet
TTITLE11=Some Old Side Road
EXTD=KOCH RECORDS NASHVILLE: KOC-CD-9879\n\nKim Fox, vocal, guitar\nBa
EXTD=rb Fox, vocal\nJoel Fox, vocal, banjo\nMike Anglin, bass\nMegan L
EXTD=ynch, fiddle\nJim Reed, mandolin, guitar\nEric Darken, percussion
EXTD=\nRandy Kohrs, dobro
EXTT0=
EXTT1=
EXTT2=
EXTT3=
EXTT4=
EXTT5=
EXTT6=
EXTT7=
EXTT8=
EXTT9=
EXTT10=
EXTT11=
PLAYORDER=
